<svg width="341" height="705" viewBox="0 0 341 705" fill="none" xmlns="http://www.w3.org/2000/svg">
<path d="M14.1485 702.213C-86.9457 713.391 -187.572 683.034 -269.846 616.468L-267.028 612.651C-99.6224 748.096 137.093 721.923 260.816 554.288C320.682 473.175 345.537 371.101 330.617 267.582C315.655 163.776 262.659 70.6016 181.656 5.06354L184.473 1.24643C266.706 67.525 320.185 162.106 335.354 267.35C350.523 372.595 325.516 475.562 264.711 557.948C204.057 639.44 115.243 691.036 14.1485 702.213Z" stroke="url(#paint0_linear_198_266)" stroke-opacity="0.6"/>
<path d="M10.2112 674.896C-79.8345 684.852 -175.296 659.182 -254.116 595.156L-251.299 591.339C-95.6464 717.274 124.772 692.903 239.809 537.038C354.846 381.173 321.773 151.706 166.12 25.7701L168.937 21.953C326.813 149.688 360.301 382.03 243.621 540.122C185.439 619.297 100.257 664.94 10.2112 674.896Z" stroke="url(#paint1_linear_198_266)" stroke-opacity="0.6"/>
<path d="M6.31554 647.866C-80.6918 657.486 -167.825 631.188 -238.663 573.874L-235.846 570.057C-165.961 626.6 -80.3329 652.188 5.29328 642.721C91.1957 633.223 166.835 589.511 218.208 519.561C269.857 449.581 290.901 361.951 278.053 272.81C265.164 183.381 219.64 103.111 149.797 46.8558L152.614 43.0387C223.452 100.352 269.694 181.711 282.79 272.578C295.845 363.157 274.18 452.316 221.827 523.251C170.261 593.806 93.3228 638.246 6.31554 647.866Z" stroke="url(#paint2_linear_198_266)" stroke-opacity="0.6"/>
<path d="M2.41964 620.836C-74.3678 629.326 -155.548 607.336 -222.85 553.137L-220.033 549.32C-87.5696 656.494 99.6618 635.5 197.326 503.174C295.224 370.529 266.848 175.599 134.702 68.6821L137.52 64.865C272.165 173.551 300.721 371.674 201.179 506.545C151.601 573.375 79.207 612.346 2.41964 620.836Z" stroke="url(#paint3_linear_198_266)" stroke-opacity="0.6"/>
<path d="M-1.47598 593.806C-71.6343 601.563 -145.813 581.428 -207.397 531.855L-204.58 528.038C-83.8696 625.703 86.8305 606.829 176.043 485.954C265.255 365.079 239.642 187.371 118.932 89.7067L121.749 85.8896C244.683 185.353 270.752 366.224 179.896 489.325C134.82 550.399 68.6823 586.049 -1.47598 593.806Z" stroke="url(#paint4_linear_198_266)" stroke-opacity="0.6"/>
<path d="M-5.41336 566.489C-68.9425 573.513 -136.077 555.52 -191.668 510.543L-188.85 506.726C-79.8935 594.881 74.5099 577.809 155.036 468.703C194.007 415.9 210.26 349.541 200.479 281.679C190.739 214.104 156.168 153.365 103.437 110.701L106.254 106.884C160.256 150.576 195.269 212.435 205.216 281.447C215.162 350.46 198.8 417.999 158.889 472.075C118.039 527.423 58.1158 559.464 -5.41336 566.489Z" stroke="url(#paint5_linear_198_266)" stroke-opacity="0.6"/>
<path d="M-9.30926 539.459C-66.2093 545.75 -126.342 529.612 -175.938 489.231L-173.121 485.414C-75.6412 564.029 61.9132 548.82 134.029 451.453C205.826 353.829 185.187 210.628 87.942 131.695L90.7592 127.878C190.186 208.323 211.599 354.944 137.841 454.537C100.982 504.478 47.5908 533.168 -9.30926 539.459Z" stroke="url(#paint6_linear_198_266)" stroke-opacity="0.6"/>
<defs>
<linearGradient id="paint0_linear_198_266" x1="100.38" y1="475.815" x2="374.548" y2="480.271" gradientUnits="userSpaceOnUse">
<stop stop-color="#FFC01F"/>
<stop offset="1" stop-color="#E1E4EB" stop-opacity="0.47"/>
</linearGradient>
<linearGradient id="paint1_linear_198_266" x1="100.38" y1="475.815" x2="374.548" y2="480.271" gradientUnits="userSpaceOnUse">
<stop stop-color="#FFC01F"/>
<stop offset="1" stop-color="#E1E4EB" stop-opacity="0.47"/>
</linearGradient>
<linearGradient id="paint2_linear_198_266" x1="100.38" y1="475.815" x2="374.548" y2="480.271" gradientUnits="userSpaceOnUse">
<stop stop-color="#FFC01F"/>
<stop offset="1" stop-color="#E1E4EB" stop-opacity="0.47"/>
</linearGradient>
<linearGradient id="paint3_linear_198_266" x1="100.38" y1="475.815" x2="374.548" y2="480.271" gradientUnits="userSpaceOnUse">
<stop stop-color="#FFC01F"/>
<stop offset="1" stop-color="#E1E4EB" stop-opacity="0.47"/>
</linearGradient>
<linearGradient id="paint4_linear_198_266" x1="100.38" y1="475.815" x2="374.548" y2="480.271" gradientUnits="userSpaceOnUse">
<stop stop-color="#FFC01F"/>
<stop offset="1" stop-color="#E1E4EB" stop-opacity="0.47"/>
</linearGradient>
<linearGradient id="paint5_linear_198_266" x1="100.38" y1="475.815" x2="374.548" y2="480.271" gradientUnits="userSpaceOnUse">
<stop stop-color="#FFC01F"/>
<stop offset="1" stop-color="#E1E4EB" stop-opacity="0.47"/>
</linearGradient>
<linearGradient id="paint6_linear_198_266" x1="100.38" y1="475.815" x2="374.548" y2="480.271" gradientUnits="userSpaceOnUse">
<stop stop-color="#FFC01F"/>
<stop offset="1" stop-color="#E1E4EB" stop-opacity="0.47"/>
</linearGradient>
</defs>
</svg>
