<svg width="376" height="768" viewBox="0 0 376 768" fill="none" xmlns="http://www.w3.org/2000/svg">
<path d="M256.503 669.242C180.734 737.793 80.7716 772.403 -25.6569 766.863L-25.6195 762.111C190.936 773.383 368.353 612.868 369.997 404.184C370.793 303.207 330.657 205.845 257.252 130.717C183.644 55.3812 85.3324 11.0454 -19.4524 5.59131L-19.415 0.839499C86.8096 6.17043 186.348 51.3624 260.976 127.742C335.603 204.121 376.144 302.297 375.336 404.858C374.123 506.605 332.273 600.69 256.503 669.242Z" stroke="url(#paint0_linear_198_185)" stroke-opacity="0.6"/>
<path d="M237.132 649.416C169.644 710.476 76.6643 745.845 -25.4479 740.332L-25.4105 735.58C175.941 746.061 341.143 596.596 342.672 402.563C344.201 208.53 181.489 41.9981 -19.8624 31.5178L-19.8249 26.7659C184.403 37.396 349.154 206.015 347.603 402.82C347.033 501.233 304.621 588.357 237.132 649.416Z" stroke="url(#paint1_linear_198_185)" stroke-opacity="0.6"/>
<path d="M217.966 629.8C152.755 688.799 66.1896 718.758 -25.4457 713.988L-25.4083 709.237C64.9943 713.942 149.912 684.293 214.089 626.231C278.472 567.981 314.25 488.039 314.73 401.109C315.416 313.992 280.72 230.58 217.511 165.887C154.098 100.985 69.5095 62.7114 -20.6892 58.2146L-20.6518 53.4628C70.9836 58.2324 156.802 96.966 221.234 162.911C285.463 228.648 320.557 313.665 319.862 401.97C319.583 489.505 283.178 570.801 217.966 629.8Z" stroke="url(#paint2_linear_198_185)" stroke-opacity="0.6"/>
<path d="M198.799 610.183C141.248 662.252 62.0825 692.201 -24.8289 687.875L-24.7914 683.123C146.563 692.042 286.719 564.845 288.017 400.115C289.318 234.989 150.867 93.6861 -20.0765 84.7885L-20.0391 80.0367C153.987 88.8967 294.475 232.682 293.152 400.58C292.289 483.924 256.351 558.114 198.799 610.183Z" stroke="url(#paint3_linear_198_185)" stroke-opacity="0.6"/>
<path d="M179.633 590.567C127.05 638.14 54.688 665.472 -24.8268 661.531L-24.7893 656.779C131.361 664.907 259.299 549.156 260.485 398.682C261.671 248.207 135.661 119.238 -20.4894 111.111L-20.4519 106.359C138.574 114.636 266.828 245.9 265.62 399.147C265.021 475.176 232.216 542.993 179.633 590.567Z" stroke="url(#paint4_linear_198_185)" stroke-opacity="0.6"/>
<path d="M160.262 570.741C112.648 613.82 47.2934 638.743 -24.6178 635L-24.5803 630.248C116.366 637.584 232.09 532.884 233.16 397.061C233.678 331.328 207.662 267.976 159.542 218.726C111.625 169.685 47.5174 140.796 -20.6954 137.246L-20.658 132.494C49.1986 136.13 114.329 165.666 163.265 215.751C212.201 265.836 238.826 330.209 238.295 397.527C237.752 466.428 207.877 527.663 160.262 570.741Z" stroke="url(#paint5_linear_198_185)" stroke-opacity="0.6"/>
<path d="M141.096 551.125C98.4493 589.708 39.8989 612.014 -24.4087 608.469L-24.3713 603.717C101.578 610.075 204.674 516.8 205.836 395.441C206.587 274.061 105.044 170.135 -20.9014 163.381L-20.8639 158.629C107.754 165.324 211.951 271.567 210.767 395.698C210.277 457.868 183.742 512.541 141.096 551.125Z" stroke="url(#paint6_linear_198_185)" stroke-opacity="0.6"/>
<defs>
<linearGradient id="paint0_linear_198_185" x1="192.829" y1="434.989" x2="418.086" y2="276.125" gradientUnits="userSpaceOnUse">
<stop stop-color="#FFC01F"/>
<stop offset="1" stop-color="#E1E4EB" stop-opacity="0.47"/>
</linearGradient>
<linearGradient id="paint1_linear_198_185" x1="192.829" y1="434.989" x2="418.086" y2="276.125" gradientUnits="userSpaceOnUse">
<stop stop-color="#FFC01F"/>
<stop offset="1" stop-color="#E1E4EB" stop-opacity="0.47"/>
</linearGradient>
<linearGradient id="paint2_linear_198_185" x1="192.829" y1="434.989" x2="418.086" y2="276.125" gradientUnits="userSpaceOnUse">
<stop stop-color="#FFC01F"/>
<stop offset="1" stop-color="#E1E4EB" stop-opacity="0.47"/>
</linearGradient>
<linearGradient id="paint3_linear_198_185" x1="192.829" y1="434.989" x2="418.086" y2="276.125" gradientUnits="userSpaceOnUse">
<stop stop-color="#FFC01F"/>
<stop offset="1" stop-color="#E1E4EB" stop-opacity="0.47"/>
</linearGradient>
<linearGradient id="paint4_linear_198_185" x1="192.829" y1="434.989" x2="418.086" y2="276.125" gradientUnits="userSpaceOnUse">
<stop stop-color="#FFC01F"/>
<stop offset="1" stop-color="#E1E4EB" stop-opacity="0.47"/>
</linearGradient>
<linearGradient id="paint5_linear_198_185" x1="192.829" y1="434.989" x2="418.086" y2="276.125" gradientUnits="userSpaceOnUse">
<stop stop-color="#FFC01F"/>
<stop offset="1" stop-color="#E1E4EB" stop-opacity="0.47"/>
</linearGradient>
<linearGradient id="paint6_linear_198_185" x1="192.829" y1="434.989" x2="418.086" y2="276.125" gradientUnits="userSpaceOnUse">
<stop stop-color="#FFC01F"/>
<stop offset="1" stop-color="#E1E4EB" stop-opacity="0.47"/>
</linearGradient>
</defs>
</svg>
