<svg width="404" height="748" viewBox="0 0 404 748" fill="none" xmlns="http://www.w3.org/2000/svg">
<path d="M251.107 20.8408C348.254 -11.6156 453.755 -3.08501 548.872 44.985L546.909 49.3405C353.369 -48.4699 125.896 27.5277 39.6736 218.805C-2.04687 311.359 -4.85373 417.117 31.8013 515.857C68.5581 614.871 140.5 695.347 234.149 742.675L232.186 747.03C137.17 699.234 64.453 617.475 27.1871 517.09C-10.0788 416.705 -7.31193 310.035 35.063 216.03C77.4779 122.936 153.96 53.2972 251.107 20.8408Z" stroke="url(#paint0_linear_272_25)" stroke-opacity="0.6"/>
<path d="M260.78 46.8972C347.31 17.988 446.731 23.0004 537.91 69.3031L535.947 73.6585C355.995 -17.2847 144.183 53.4808 64.014 231.329C-16.1548 409.178 65.0971 628.051 245.049 718.994L243.086 723.349C60.5631 631.107 -21.707 409.491 59.607 229.102C100.08 138.815 174.25 75.8064 260.78 46.8972Z" stroke="url(#paint1_linear_272_25)" stroke-opacity="0.6"/>
<path d="M270.351 72.6792C353.961 44.7454 445.317 52.144 527.214 93.5324L525.25 97.8879C444.456 57.0562 354.732 50.0372 272.449 77.5275C189.901 105.107 124.715 164.188 88.9867 243.95C52.9926 323.8 50.8724 414.531 82.4364 499.556C114.102 584.857 175.95 654.215 256.643 694.773L254.68 699.128C172.784 657.74 109.997 587.461 77.8222 500.79C45.7491 414.392 48.1565 322.025 84.6415 241.085C120.432 160.687 186.741 100.613 270.351 72.6792Z" stroke="url(#paint2_linear_272_25)" stroke-opacity="0.6"/>
<path d="M279.922 98.4612C353.711 73.8085 438.293 78.2292 516.048 117.302L514.085 121.657C360.942 44.2627 181.083 104.661 113.022 255.651C44.7963 407.003 114.095 592.875 266.871 670.084L264.907 674.439C109.296 596.02 39.1422 407.043 108.513 253.149C143.136 176.84 206.133 123.114 279.922 98.4612Z" stroke="url(#paint3_linear_272_25)" stroke-opacity="0.6"/>
<path d="M289.493 124.243C356.912 101.719 434.207 105.799 505.352 141.531L503.388 145.887C363.834 75.3594 199.799 130.163 137.627 268.086C75.4554 406.009 138.38 575.512 277.934 646.04L275.971 650.395C133.846 578.569 69.8013 406.048 133.118 265.584C164.531 195.897 222.074 146.768 289.493 124.243Z" stroke="url(#paint4_linear_272_25)" stroke-opacity="0.6"/>
<path d="M299.166 150.3C360.214 129.904 430.122 133.37 494.39 165.849L492.427 170.205C366.46 106.545 218.086 156.116 161.967 280.61C134.808 340.86 132.891 409.634 156.92 474.363C180.848 538.819 227.769 591.275 288.733 622.085L286.769 626.44C224.337 594.888 176.743 541.423 152.306 475.597C127.869 409.77 129.645 339.811 157.459 278.108C185.927 214.954 238.117 170.696 299.166 150.3Z" stroke="url(#paint5_linear_272_25)" stroke-opacity="0.6"/>
<path d="M308.737 176.082C363.415 157.814 426.036 160.94 483.428 190.167L481.465 194.523C368.821 137.818 236.638 181.98 186.308 293.133C136.345 404.472 187.051 541.062 299.531 598.13L297.568 602.485C182.619 544.393 130.425 404.6 181.901 290.906C207.587 233.922 254.058 194.349 308.737 176.082Z" stroke="url(#paint6_linear_272_25)" stroke-opacity="0.6"/>
<defs>
<linearGradient id="paint0_linear_272_25" x1="214.262" y1="262.01" x2="-56.5793" y2="315.804" gradientUnits="userSpaceOnUse">
<stop stop-color="#FFC01F"/>
<stop offset="1" stop-color="#E1E4EB" stop-opacity="0.47"/>
</linearGradient>
<linearGradient id="paint1_linear_272_25" x1="214.262" y1="262.01" x2="-56.5793" y2="315.804" gradientUnits="userSpaceOnUse">
<stop stop-color="#FFC01F"/>
<stop offset="1" stop-color="#E1E4EB" stop-opacity="0.47"/>
</linearGradient>
<linearGradient id="paint2_linear_272_25" x1="214.262" y1="262.01" x2="-56.5793" y2="315.804" gradientUnits="userSpaceOnUse">
<stop stop-color="#FFC01F"/>
<stop offset="1" stop-color="#E1E4EB" stop-opacity="0.47"/>
</linearGradient>
<linearGradient id="paint3_linear_272_25" x1="214.262" y1="262.01" x2="-56.5793" y2="315.804" gradientUnits="userSpaceOnUse">
<stop stop-color="#FFC01F"/>
<stop offset="1" stop-color="#E1E4EB" stop-opacity="0.47"/>
</linearGradient>
<linearGradient id="paint4_linear_272_25" x1="214.262" y1="262.01" x2="-56.5793" y2="315.804" gradientUnits="userSpaceOnUse">
<stop stop-color="#FFC01F"/>
<stop offset="1" stop-color="#E1E4EB" stop-opacity="0.47"/>
</linearGradient>
<linearGradient id="paint5_linear_272_25" x1="214.262" y1="262.01" x2="-56.5793" y2="315.804" gradientUnits="userSpaceOnUse">
<stop stop-color="#FFC01F"/>
<stop offset="1" stop-color="#E1E4EB" stop-opacity="0.47"/>
</linearGradient>
<linearGradient id="paint6_linear_272_25" x1="214.262" y1="262.01" x2="-56.5793" y2="315.804" gradientUnits="userSpaceOnUse">
<stop stop-color="#FFC01F"/>
<stop offset="1" stop-color="#E1E4EB" stop-opacity="0.47"/>
</linearGradient>
</defs>
</svg>
