<svg width="271" height="532" viewBox="0 0 271 532" fill="none" xmlns="http://www.w3.org/2000/svg">
<path d="M246.449 232.664C281.931 328.748 276.707 434.464 231.638 531.039L227.224 529.213C318.927 332.706 235.846 107.724 41.963 27.5316C-51.8514 -11.2711 -157.645 -10.7659 -255.189 28.9621C-353.004 68.8005 -431.189 143.227 -475.562 238.311L-479.976 236.485C-435.179 140.02 -355.736 64.779 -256.566 24.3888C-157.397 -16.0014 -50.6928 -16.5751 44.5932 22.8363C138.969 62.3162 210.968 136.581 246.449 232.664Z" stroke="url(#paint0_linear_272_27)" stroke-opacity="0.6"/>
<path d="M220.709 243.148C252.312 328.731 250.415 428.26 206.989 520.844L202.574 519.018C287.84 336.307 210.478 126.814 30.2074 52.252C-150.063 -22.31 -366.286 65.7538 -451.551 248.464L-455.966 246.638C-369.482 61.3177 -150.551 -27.8497 32.2955 47.7775C123.806 85.4047 189.105 157.566 220.709 243.148Z" stroke="url(#paint1_linear_272_27)" stroke-opacity="0.6"/>
<path d="M195.239 253.521C225.776 336.216 221.241 427.759 182.437 510.911L178.022 509.085C216.304 427.052 220.511 337.152 190.459 255.77C160.309 174.126 99.2156 110.822 18.3746 77.6076C-62.5633 44.1308 -153.316 44.8519 -237.312 79.0621C-321.579 113.383 -388.968 177.372 -426.979 259.295L-431.394 257.469C-392.589 174.317 -324.311 109.361 -238.689 74.4888C-153.338 39.7268 -60.94 39.2415 21.1016 73.1749C102.581 106.431 164.701 170.827 195.239 253.521Z" stroke="url(#paint2_linear_272_27)" stroke-opacity="0.6"/>
<path d="M169.769 263.895C196.72 336.876 194.949 421.555 158.33 500.495L153.915 498.669C226.477 343.179 160.478 165.299 7.43187 101.997C-145.982 38.5431 -329.593 113.627 -401.982 268.744L-406.396 266.918C-332.887 108.928 -146.198 32.8931 9.791 97.4121C87.1469 129.63 142.819 190.913 169.769 263.895Z" stroke="url(#paint3_linear_272_27)" stroke-opacity="0.6"/>
<path d="M144.299 274.268C168.923 340.949 167.264 418.334 133.777 490.562L129.362 488.736C195.486 347.043 135.575 184.803 -4.22701 126.98C-144.029 69.1561 -311.479 137.356 -377.603 279.05L-382.018 277.224C-314.676 132.92 -144.245 63.506 -1.86787 122.395C68.7689 151.611 119.675 207.587 144.299 274.268Z" stroke="url(#paint4_linear_272_27)" stroke-opacity="0.6"/>
<path d="M118.559 284.752C140.856 345.132 139.58 415.114 109.128 480.367L104.713 478.541C164.399 350.644 110.207 203.894 -15.9826 151.7C-77.054 126.44 -145.854 126.677 -209.799 152.721C-273.474 178.654 -324.436 227.195 -353.322 289.093L-357.737 287.267C-328.155 223.878 -276.206 174.633 -211.177 148.147C-146.147 121.662 -76.1665 121.247 -13.6236 147.115C50.391 173.592 96.2613 224.372 118.559 284.752Z" stroke="url(#paint5_linear_272_27)" stroke-opacity="0.6"/>
<path d="M93.0888 295.126C113.059 349.205 111.895 411.893 84.4786 470.172L80.0638 468.346C133.214 353.983 84.936 223.246 -27.7382 176.421C-140.587 129.968 -275.522 184.925 -329.041 299.136L-333.455 297.31C-278.99 180.599 -140.9 124.055 -25.6501 171.946C32.1101 195.836 73.1182 241.046 93.0888 295.126Z" stroke="url(#paint6_linear_272_27)" stroke-opacity="0.6"/>
<defs>
<linearGradient id="paint0_linear_272_27" x1="4.24481" y1="203.387" x2="-58.0015" y2="-65.6377" gradientUnits="userSpaceOnUse">
<stop stop-color="#FFC01F"/>
<stop offset="1" stop-color="#E1E4EB" stop-opacity="0.47"/>
</linearGradient>
<linearGradient id="paint1_linear_272_27" x1="4.24481" y1="203.387" x2="-58.0015" y2="-65.6377" gradientUnits="userSpaceOnUse">
<stop stop-color="#FFC01F"/>
<stop offset="1" stop-color="#E1E4EB" stop-opacity="0.47"/>
</linearGradient>
<linearGradient id="paint2_linear_272_27" x1="4.24481" y1="203.387" x2="-58.0015" y2="-65.6377" gradientUnits="userSpaceOnUse">
<stop stop-color="#FFC01F"/>
<stop offset="1" stop-color="#E1E4EB" stop-opacity="0.47"/>
</linearGradient>
<linearGradient id="paint3_linear_272_27" x1="4.24481" y1="203.387" x2="-58.0015" y2="-65.6377" gradientUnits="userSpaceOnUse">
<stop stop-color="#FFC01F"/>
<stop offset="1" stop-color="#E1E4EB" stop-opacity="0.47"/>
</linearGradient>
<linearGradient id="paint4_linear_272_27" x1="4.24481" y1="203.387" x2="-58.0015" y2="-65.6377" gradientUnits="userSpaceOnUse">
<stop stop-color="#FFC01F"/>
<stop offset="1" stop-color="#E1E4EB" stop-opacity="0.47"/>
</linearGradient>
<linearGradient id="paint5_linear_272_27" x1="4.24481" y1="203.387" x2="-58.0015" y2="-65.6377" gradientUnits="userSpaceOnUse">
<stop stop-color="#FFC01F"/>
<stop offset="1" stop-color="#E1E4EB" stop-opacity="0.47"/>
</linearGradient>
<linearGradient id="paint6_linear_272_27" x1="4.24481" y1="203.387" x2="-58.0015" y2="-65.6377" gradientUnits="userSpaceOnUse">
<stop stop-color="#FFC01F"/>
<stop offset="1" stop-color="#E1E4EB" stop-opacity="0.47"/>
</linearGradient>
</defs>
</svg>
